<?xml version="1.0" encoding="utf-8"?>
<!-- Generator: Adobe Illustrator 26.5.0, SVG Export Plug-In . SVG Version: 6.00 Build 0)  -->
<svg version="1.1" id="_圖層_2" xmlns="http://www.w3.org/2000/svg" xmlns:xlink="http://www.w3.org/1999/xlink" x="0px" y="0px"
	 viewBox="0 0 330 43.9" style="enable-background:new 0 0 330 43.9;" xml:space="preserve">
<style type="text/css">
	.st0{fill:#0A9A94;}
</style>
<g>
	
		<image style="overflow:visible;opacity:0.75;" width="361" height="75" xlink:href="E0755C7BBD419A8A.png"  transform="matrix(1 0 0 1 -15 -15.09)">
	</image>
	<g>
		<g>
			<path class="st0" d="M13.9,31.8c-0.1-0.6-0.1-1.2-0.1-1.8c-0.6,0.6-1.2,1.2-1.9,1.6c-1.2,0.9-2.3,1.5-3.4,2c0,0.4,0,0.9,0.1,1.2
				c0,1.3-0.6,2-1.6,2c-0.8,0-1.3-0.6-1.5-1.9C5.4,34,5.4,33.1,5.4,32c0-4,0.3-7.5,0.9-10.4c-0.2,0-0.3,0.1-0.5,0.1
				C4.7,21.9,3.9,22,3.5,22c-0.6,0.1-1.2,0.1-1.6,0.1c-0.8,0-1.3-0.6-1.4-1.7c0-0.5,0.4-0.9,1.2-1.3c0.4-0.1,1-0.3,1.8-0.6
				c4.4-0.7,8.6-1.5,12.7-2.4c5.9-1.2,10.5-2.3,13.8-3.2c0.4,0,0.8,0.2,0.9,0.4c0,0.2,0.1,0.3,0.1,0.5c0,0.4-0.2,0.9-0.6,1.4
				c-1.7,1.2-6.2,2.6-13.4,4.1c-0.2,0-0.3,0.1-0.5,0.1c0,0.1,0,0.2,0,0.2c0,0.7,0,1.9-0.1,3.5c0,1.4,0,2.9,0,4.5
				c0,1.4,0,3.1,0.1,5.1c0.1,1.9,0.2,3.5,0.2,4.8c0,2.2-0.4,4.1-1.2,5.5c-0.3,0.6-0.8,0.9-1.4,0.9c-0.9,0-1.3-0.5-1.3-1.5
				c0.8-1.5,1.2-2.9,1.3-4.5c0-0.3,0-0.6,0-0.9c-1.5,1.2-3.1,2.2-4.9,3.1c-1.5,0.7-2.7,1.1-3.8,1.4c-0.4,0.1-0.7,0.1-1,0.1
				c-0.8,0-1.2-0.5-1.3-1.3c0-0.4,0-0.7,0.2-0.9c0.2-0.3,0.8-0.6,1.8-0.9c1.1-0.3,2-0.7,2.7-1c1.7-0.8,3.8-1.8,6.1-3.2
				c0.1-0.1,0.1-0.1,0.2-0.2C14,33.3,13.9,32.6,13.9,31.8z M11.6,15c-0.3,0.2-0.5,0.3-0.7,0.3c-0.3,0-0.5-0.1-0.8-0.5
				c-0.2-0.2-0.3-0.3-0.4-0.6c-0.4-0.7-0.6-1.6-0.7-2.8c-0.1-0.8-0.1-1.5-0.2-2.1C8.6,8.1,8.4,7.1,8.2,6.2C8,5,7.9,4.2,7.9,3.8
				c0-0.7,0.4-1.1,1.2-1.2h0.7c0.4,0,0.7,0.3,1,0.9C10.9,3.9,11,4.7,11,5.7c0.2,1.8,0.3,3.3,0.6,4.6c0.1,1.4,0.3,2.5,0.4,3.4
				C12,14.4,11.9,14.8,11.6,15z M9.2,30.3c1.2-0.6,2.3-1.2,3.2-1.8c0.5-0.5,0.9-0.7,1-0.8l0.1,0c0-0.8,0-1.5,0-2.3
				c-1.4,0.6-3.1,1.3-5,2H8.5c-0.1,1.2-0.2,2.3-0.2,3.3C8.7,30.6,9,30.5,9.2,30.3z M11,23.7c1.3-0.4,2.1-0.6,2.6-0.7
				c0-0.9,0-1.9,0-2.9c-1.5,0.3-3,0.7-4.4,1c0,0.3-0.1,0.5-0.1,0.7c-0.1,0.8-0.2,1.8-0.3,2.9C9.3,24.3,10.1,24,11,23.7z M21.1,13.8
				c-0.3-0.2-0.4-0.4-0.4-0.9c0-0.3,0.2-0.6,0.6-1.1c0.4-0.7,0.9-1.5,1.2-2.4c0.6-1.7,1-3.1,1.1-4.2c0-1.2-0.3-1.8-0.9-1.9
				c-1.8,0-3.4,0.2-5,0.5C16,4,14.5,4.3,13.2,4.7c-0.4,0.1-0.7,0.2-0.8,0.2c-0.6,0-0.9-0.4-0.9-1.2c0-0.5,0.1-0.9,0.3-1.3
				C12,2.2,12.2,2,12.7,1.7c1.2-0.3,2.6-0.6,4.5-0.9c1.6-0.2,3.2-0.3,4.5-0.3c0.9,0,1.6,0.1,2.2,0.3c1,0.3,1.7,0.8,2.2,1.7
				c0.3,0.8,0.6,1.6,0.6,2.5c0,0.9-0.3,2.2-0.8,3.8c-0.4,1.4-1,2.6-1.6,3.6c-0.3,0.6-0.6,1-0.9,1.3c-0.5,0.4-1,0.6-1.4,0.6
				C21.6,14.1,21.3,14.1,21.1,13.8z M15.2,8.5C14.2,8.8,13.6,9,13.4,9h-0.3c-0.2,0-0.4-0.2-0.6-0.4c-0.2-0.3-0.2-0.5-0.2-0.7
				c0-0.3,0.2-0.7,0.6-1c0.9-0.3,2.8-0.8,5.4-1.3c0.6-0.1,1.1-0.2,1.4-0.2c0.3,0,0.5,0.2,0.8,0.4c0.2,0.3,0.3,0.5,0.3,0.7
				c0,0.3-0.3,0.7-0.8,0.9C19,7.6,17.4,8,15.2,8.5z M20.4,10.2c0.2,0.3,0.3,0.6,0.3,0.8c0,0.3-0.2,0.6-0.5,0.8c-1.5,0.5-3.5,1-6,1.7
				c-0.7,0-1.1-0.4-1.2-1V12c0-0.3,0.2-0.5,0.5-0.7c0.6-0.3,1.7-0.6,3.2-1c1.5-0.3,2.5-0.6,2.8-0.6C20,9.7,20.3,9.9,20.4,10.2z
				 M21,39c-0.8-0.1-1.2-0.4-1.2-1.1c0-0.3,0-0.5,0.1-0.8c1.1-1.2,2.1-2.3,2.7-3.5c-1.2-1.5-2.4-2.9-3.5-4.4
				c-0.4-0.3-0.6-0.7-0.6-1.2c0-0.3,0.1-0.6,0.3-0.9c0.3-0.4,0.6-0.6,1.2-0.7c0.5,0,0.9,0.2,1.2,0.4c0.3,0.2,0.5,0.5,0.8,0.8
				c0.6,0.8,1.2,1.6,1.8,2.4c0.2,0.3,0.3,0.5,0.5,0.6c0.3-0.4,0.5-0.8,0.6-1.2c1-2.1,1.6-4,1.8-5.6c-1.1,0-2.2,0.1-3.3,0.3
				c-0.7,0.1-1.1,0.1-1.2,0.1c-0.3,0-0.6-0.1-0.9-0.4c-0.3-0.4-0.4-0.9-0.4-1.5c0-0.5,0.3-0.9,0.8-1.3c0.7-0.3,1.8-0.5,3.1-0.6
				c0.5,0,1.1,0,1.7,0c0.8,0,1.4,0.3,1.8,0.6c0.6,0.5,1,1.1,1.3,1.9c0,0.4,0.1,0.8,0.1,1.2c0,1.4-0.8,3.7-2.3,6.9
				c-0.4,0.7-0.7,1.4-1.1,2c2.4,2.7,4.7,4.4,6.7,5.2c1.4,0.5,2.6,0.7,3.7,0.8c0.4,0,0.7,0.1,0.8,0.4c0,0.4-0.2,0.7-0.4,0.9
				c-0.7,0.5-2,0.8-3.7,0.8c-0.9,0-1.8-0.2-2.9-0.6c-1-0.4-2.2-1.2-3.5-2.1c-0.9-0.8-1.8-1.6-2.6-2.6c-1.2,1.6-2.1,2.6-2.7,2.9
				C21.6,38.9,21.3,39,21,39z"/>
			<path class="st0" d="M56.1,8.6c-0.3,0.8-0.6,1.7-1.1,2.7c-0.4,0.9-0.9,1.9-1.5,3c0.1,0.1,0.3,0.3,0.4,0.5
				c0.4,1.5,0.6,3.7,0.7,6.7c0,4.4-0.3,8.5-0.9,12.4c-0.2,1.7-0.5,3.2-0.8,4.5c-0.2,0.9-0.7,1.3-1.5,1.3c-0.9,0-1.3-0.5-1.3-1.5
				c0-1.3,0.3-3.6,0.8-7c0.3-2.2,0.4-4.5,0.4-7v-2.5c0-1.2,0-2.3-0.1-3.3c-0.8,1.5-1.7,3.1-2.6,4.7c-0.7,1.3-1.5,2.8-2.4,4.5
				c-0.3,0.5-0.7,0.7-1.1,0.7c-0.7,0-1.1-0.3-1.2-1c0-0.3,0.1-0.7,0.4-1c0.4-0.9,0.9-2,1.6-3.3c0.8-1.7,1.8-3.9,3.1-6.5
				c1-2.1,2-4.4,3.2-6.8c0.3-0.8,0.6-1.7,1-2.6c0.2-0.3,0.4-0.8,0.6-1.2c0.4-0.1,0.9-0.2,1.6-0.2c0.8,0.2,1.2,0.6,1.2,1.3
				C56.7,7.4,56.5,8,56.1,8.6z M77.1,27.6c-0.8,0.6-2.6,1.4-5.5,2.1c-0.1,0.9-0.2,1.7-0.3,2.4c-0.4,2.1-1,3.7-1.7,4.8v0
				c1.1-0.1,2.2-0.2,3.2-0.3c1.3-0.1,2.7-0.2,4.1-0.3c1.3-0.1,2.2-0.1,2.8-0.1c0.9,0,1.4,0.5,1.5,1.4c0,0.8-0.4,1.2-1.3,1.5
				c-0.8,0-1.6,0-2.4,0.1c-1.3,0.1-2.7,0.2-4.2,0.3c-2.1,0.2-4.8,0.4-7.9,0.8c-1.9,0.3-3.9,0.5-5.8,0.9c-0.6,0.2-1,0.3-1.2,0.3
				c-0.5,0-0.8-0.3-1.1-0.7C57,40.7,57,40.4,57,39.9c0-0.5,0.4-0.9,1.2-1.3c1.1-0.3,2.7-0.5,4.9-0.7c1.5-0.2,2.8-0.4,3.9-0.5v0
				c0.3-0.9,0.9-2,1.6-3.6c0.1-1.2,0.3-2.3,0.3-3.2c-1.3,0.3-2.6,0.6-3.7,0.9c-0.6,0.1-0.9,0.2-1.1,0.2c-0.6,0.1-1.2,0.1-1.6,0.1
				c-0.8,0-1.2-0.6-1.3-1.6c0-0.5,0.4-0.9,1.2-1.3c0.4-0.1,1-0.3,1.7-0.6c1.7-0.3,3.4-0.6,5-1c0-0.6-0.2-1.3-0.4-2.1
				c-0.1-0.3-0.2-0.7-0.3-1c-0.2-0.6-0.3-1-0.3-1.3c0-0.5,0.2-0.9,0.7-1.3c0.3-0.2,0.7-0.3,1.1-0.3c0.7,0,1.2,0.4,1.4,1.3
				c0.2,0.5,0.4,1.2,0.5,2c0,0.6,0.1,1.2,0.1,1.5v0.6c2.1-0.4,3.7-0.9,4.9-1.3c0.4,0,0.7,0.2,0.9,0.6c0.1,0.1,0.1,0.3,0.1,0.5
				C77.7,26.7,77.5,27.2,77.1,27.6z M74.8,6.7c-1.1,0.7-2.5,1.4-4,2.1c0,0.3,0,0.5,0,0.6c0,1.5-0.3,3.2-0.8,4.8
				c-0.2,0.5-0.3,1-0.4,1.3c0.9-0.2,1.8-0.4,2.7-0.6c1-0.3,1.8-0.4,2.4-0.4c0.3,0,0.7,0.2,1,0.6c0.3,0.4,0.4,0.7,0.4,1
				c0,0.4-0.3,0.9-0.9,1.2c-2,0.7-5,1.6-8.8,2.7c-1.9,0.6-3,0.9-3.2,0.9h-0.4c-0.3,0-0.5-0.3-0.8-0.6c-0.3-0.3-0.3-0.6-0.3-1
				c0-0.6,0.3-1.1,0.9-1.5c0.9-0.4,2.3-0.9,4.1-1.4c0.2-0.4,0.3-0.9,0.4-1.3c0.3-1.2,0.6-2.6,0.6-4.1v-1c-2,0.7-3.9,1.3-5.6,1.7
				c-0.3,0.1-0.6,0.1-0.7,0.1c-0.4,0-0.7-0.2-1-0.6c-0.3-0.3-0.3-0.9-0.3-1.5c0-0.5,0.3-0.9,0.9-1.2c1.5-0.4,2.8-0.7,3.9-1
				c0.9-0.3,1.8-0.5,2.7-0.8c-0.2-0.8-0.5-1.5-0.8-2.2l-1.3-3c0.3-0.9,0.9-1.3,1.8-1.4c0.5,0.1,1,0.4,1.4,0.9
				c0.9,1.2,1.5,2.8,1.9,4.7c0.4-0.1,0.7-0.2,1.1-0.4c1.1-0.5,1.8-0.8,2.1-0.9c0.3-0.1,0.5-0.1,0.7-0.1c0.4,0,0.8,0.2,1,0.6
				c0,0.2,0,0.4,0,0.6C75.3,5.9,75.1,6.2,74.8,6.7z"/>
			<path class="st0" d="M107.4,12.7c-0.5,1.9-1,3.8-1.6,5.5c0.7,0.8,1.4,1.6,2.1,2.4c3.1,3.9,6.8,7.8,11.1,11.8
				c2.6,2.2,4.9,4.2,7.1,6.1c0.7,0.5,1.1,1.2,1.1,1.9c0,0.6-0.3,1-0.8,1.2h-0.3c-0.4,0-0.9-0.2-1.5-0.5c-2-1.3-4.1-2.9-6.3-4.7
				c-5.3-4.3-9.8-9.1-13.5-14.4c-0.2-0.2-0.3-0.3-0.4-0.6c-0.2,0.5-0.4,1-0.6,1.4c-0.9,2-2.1,4.4-3.4,7c-0.8,1.6-1.6,3-2.3,4.2
				c-0.8,1.3-1.5,2.1-2,2.6c-0.3,0.2-0.7,0.3-1.1,0.3c-0.6-0.1-1-0.5-1.1-1.2c0-0.5,0.1-0.9,0.3-1.2c0.5-0.8,1-1.7,1.5-2.6
				c1-1.8,2.1-3.8,3.3-6.1c0.8-1.9,1.7-3.9,2.6-6.2c1-2.7,1.8-5.3,2.3-7.7c0.4-2.5,0.7-4.8,0.7-6.9c0-0.6,0.4-1,1.1-1.2
				c0.3,0,0.6,0,0.9,0c0.8,0,1.2,0.8,1.3,2.2C108.2,8,107.9,10.2,107.4,12.7z"/>
			<path class="st0" d="M159.5,27.6c-0.9,1-3,2.2-6.4,3.5v1.2c0,1.8-0.1,3.5-0.2,5.2c-0.1,1.8-0.3,3.2-0.6,4
				c-0.2,0.9-0.7,1.5-1.4,1.5c-0.8,0-1.2-0.4-1.2-1.2c0.1-0.7,0.3-1.7,0.5-2.9c0.1-1.9,0.2-3.4,0.2-4.6c-0.2,0.2-0.4,0.4-0.6,0.6
				c-1.6,2-3.6,4.1-6.1,6.2c-0.6,0.5-1.2,1-1.8,1.4c-0.4,0.3-0.8,0.6-1.2,0.6c-0.6,0-0.9-0.4-1-1c0-0.5,0.2-0.9,0.6-1.3
				c2.5-1.9,5.1-4.5,7.8-7.8c-0.7,0.3-1.5,0.6-2.1,0.8c-0.6,0.2-1,0.3-1.2,0.3c-0.6,0.1-1.1,0.2-1.5,0.2c-0.8,0-1.2-0.6-1.3-1.6
				c0-0.5,0.4-0.9,1.2-1.3c0.4-0.2,0.9-0.3,1.7-0.6c1.9-0.5,3.7-1.1,5.5-1.7c0-1-0.1-2.1-0.1-3.2c-0.1-1.2-0.1-2.4-0.2-3.5
				c-0.2-0.6-0.3-1-0.3-1.2c0-0.5,0.2-0.9,0.7-1.2c0.3-0.2,0.6-0.3,1.1-0.3c0.6,0,1.1,0.4,1.4,1.2c0.1,1.8,0.1,3.9,0.2,6.4
				c1.1-1.3,1.9-2.6,2.3-4c0.2-0.6,0.3-1.1,0.3-1.5v-0.7c0.2-0.6,0.6-0.9,1.2-0.9c1,0,1.6,0.6,1.7,1.8v0.5c-0.2,1.6-1.3,3.3-3.5,5.1
				c1.6-0.6,3-1.2,4.1-1.8c0.3,0,0.6,0.2,0.9,0.4c0,0.1,0.1,0.3,0.1,0.4C160.1,26.8,159.9,27.2,159.5,27.6z M141.7,17.9
				c0.5-0.1,1.1-0.3,1.7-0.4c3.3-0.8,6.5-1.6,9.5-2.5c4.1-1.3,7.8-2.8,11-4.4c1.2,0,1.8,0.3,1.9,1c-0.8,1.4-1.5,3.7-2.2,6.9
				c-0.2,1.4-0.3,2.9-0.3,4.6c0.2,7.7,2.8,13,7.8,16c0.2-0.4,0.5-1.6,0.8-3.4c0-0.9,0.5-1.3,1.4-1.3c0.6,0.1,1.1,0.4,1.3,1.1
				c0,1.2-0.2,2.6-0.6,4.1c-0.5,2.5-1.2,3.8-2.2,3.8c-1.3,0-2.9-0.9-4.7-2.6c-2.2-2.2-4-5-5.3-8.4c-1-2.7-1.5-5.9-1.5-9.4
				c0-1.2,0.1-2.4,0.3-3.6c0.2-1.9,0.6-3.5,1-4.8c-4.7,2.2-10.4,4.2-17.2,5.9c-0.9,0.3-1.8,0.4-2.4,0.5c-0.6-0.1-1-0.5-1.2-1.4
				C140.9,18.8,141.1,18.3,141.7,17.9z M147.9,28.7c-0.2,0.2-0.4,0.2-0.6,0.2c-0.3,0-0.6,0-0.7-0.1c-0.2-0.1-0.4-0.3-0.7-0.6
				c-1.3-1.2-2.1-2.3-2.5-3.2c0-0.1,0-0.2,0-0.3c0-0.3,0.1-0.6,0.3-0.8c0.1-0.2,0.3-0.4,0.7-0.6c0.2,0,0.4-0.1,0.7-0.1
				c0.4,0,0.8,0.3,1.2,0.9c0.3,0.6,0.7,1.3,1.2,2c0.4,0.9,0.7,1.4,0.9,1.7v0.3C148.2,28.4,148.1,28.6,147.9,28.7z M159.5,9.4
				c-0.8,0.7-2.7,1.5-5.8,2.5c-1.8,0.5-3.4,1-4.9,1.4c-0.5,0.1-0.9,0.2-1,0.2c-0.6,0.1-1.1,0.1-1.5,0.1c-0.8,0-1.2-0.6-1.3-1.6
				c0-0.4,0.4-0.9,1.2-1.3c0.5-0.2,1-0.3,1.7-0.6c1.9-0.3,3.7-0.8,5.5-1.2c2.5-0.6,4.4-1.2,5.9-1.7c0.4,0,0.7,0.2,0.9,0.4
				c0,0.1,0.1,0.2,0.1,0.4C160.1,8.6,159.9,9,159.5,9.4z M156.5,5.3c-2.9,0.9-5.2,1.5-6.9,1.7H149c-0.6,0-1.1-0.1-1.4-0.3
				c-0.6-0.3-0.8-0.9-0.8-1.6c0-0.5,0-1.1,0.2-1.8c0.2-0.6,0.4-1.1,0.6-1.6c0.2-0.8,0.7-1.2,1.4-1.2h0.3c0.9,0.2,1.4,0.7,1.4,1.6
				c-0.5,1-0.7,1.6-0.7,1.9c0.6,0,2.2-0.3,4.6-0.9c1.3-0.3,2.6-0.7,4-1.2c0.8-0.3,1.3-0.4,1.6-0.4c0.6,0.1,0.9,0.5,0.9,1
				c0,0.4-0.1,0.8-0.4,1.1C159.7,4.1,158.3,4.7,156.5,5.3z M155.7,32.1c0.2,0.1,0.4,0.2,0.6,0.3c1.2,0.6,3,2.3,5.5,5
				c0.6,0.7,0.9,1.3,1,1.8c0,0.8-0.3,1.2-1,1.2c-0.3,0-0.7-0.2-1.2-0.6c-0.5-0.4-1.2-1-2-1.8c-1.4-1.3-2.9-2.5-4.5-3.6
				c-0.2-0.2-0.2-0.4-0.2-0.7v-0.4c0-0.3,0.2-0.7,0.6-1c0.2-0.2,0.4-0.3,0.7-0.3C155.3,32,155.5,32.1,155.7,32.1z"/>
			<path class="st0" d="M218.2,19.6c-1,0.9-3.6,1.8-7.9,2.9c-2.3,0.6-4.5,1.2-6.5,1.6c-0.6,0.2-1.1,0.3-1.4,0.3
				c-0.6,0.1-1.2,0.1-1.6,0.1c-0.8,0-1.3-0.6-1.4-1.7c0-0.5,0.4-1,1.2-1.4c0.4-0.1,1-0.3,1.8-0.5c2.5-0.4,5-0.9,7.4-1.5
				c1.2-0.3,2.3-0.5,3.2-0.7l-0.2-6.6c0-1.3-0.3-2.9-0.9-5c0-0.6,0.2-1.1,0.6-1.5c0.4-0.4,0.8-0.6,1.3-0.6c0.3,0.1,0.7,0.5,1,1.2
				c0.5,1.5,0.8,3.3,0.8,5.6c0,2.1,0,4.1-0.1,6.2c0.8-0.2,1.5-0.4,2.2-0.6c0.4,0,0.7,0.2,0.9,0.4c0,0.1,0.1,0.3,0.1,0.4
				C218.8,18.8,218.6,19.2,218.2,19.6z M204.1,36.5c-0.8,0-1.2-0.4-1.2-1.1c-0.1-0.9-0.3-1.9-0.6-3.2c-0.5-1.8-1-3.4-1.3-4.6
				c0-0.3,0.2-0.6,0.4-0.9c0.3-0.3,0.6-0.5,0.9-0.5s0.6,0,0.8,0.1c0.4,0.2,0.7,0.4,0.9,0.9v0.1c2.3-1,3.9-1.6,4.8-1.7h0.2
				c0.6,0,1.1,0.2,1.4,0.5c0.5,0.5,0.7,1.1,0.7,1.8c0,0.6-0.3,1.4-0.8,2.3c-0.2,0.4-0.4,0.7-0.6,0.9c-0.1,0.3-0.3,0.6-0.5,0.9
				c-0.5,0.7-1.1,1.3-1.8,2s-1.4,1.2-2,1.5C205,36.2,204.6,36.5,204.1,36.5z M204.2,18c-0.8,0-1.2-0.3-1.2-1
				c-0.1-0.8-0.2-1.7-0.4-2.9c-0.5-1.7-0.9-3-1.2-4.1c0-0.3,0.2-0.6,0.4-0.9c0.3-0.3,0.6-0.5,0.9-0.5c0.3,0,0.5,0,0.7,0.1
				c0.4,0.2,0.7,0.4,0.9,0.8c0,0.1,0,0.1,0,0.1c2.1-0.9,3.5-1.3,4.3-1.5h0.2c0.6,0,1.2,0.2,1.5,0.5c0.5,0.4,0.8,1,0.8,1.8
				c0,0.5-0.3,1.1-0.7,1.9c-0.2,0.3-0.3,0.6-0.4,0.7c-0.1,0.4-0.3,0.8-0.5,1.1c-0.5,0.7-1.1,1.3-1.8,1.8c-0.9,0.7-1.7,1.2-2.5,1.6
				c-0.2,0.1-0.3,0.1-0.3,0.1C204.7,17.9,204.4,18,204.2,18z M216.3,2.7c-0.8,0.7-2.7,1.5-5.9,2.3c-1.8,0.5-3.4,0.9-5,1.3
				c-0.5,0.1-0.9,0.2-1,0.2c-0.6,0.1-1.2,0.2-1.6,0.2c-0.8,0-1.3-0.6-1.4-1.7c0-0.5,0.4-1,1.2-1.3c0.4-0.2,1-0.3,1.8-0.6
				c1.9-0.3,3.8-0.6,5.6-1.1c2.6-0.5,4.6-1,6-1.4c0.4,0,0.7,0.2,0.9,0.5c0,0.1,0.1,0.3,0.1,0.4C216.9,1.9,216.7,2.3,216.3,2.7z
				 M204.7,30.8c0.2,0.8,0.3,1.5,0.4,2c0,0,0.1,0,0.2-0.1c0.6-0.5,1.2-1,1.7-1.5c0.7-1.1,1.2-2,1.7-3c-0.6,0-2,0.5-4.1,1.5
				C204.6,30,204.6,30.4,204.7,30.8z M204.9,12.8c0.1,0.9,0.3,1.7,0.4,2.2c0.1-0.1,0.3-0.2,0.4-0.3c0.6-0.4,1.1-0.8,1.6-1.2
				c0.6-0.9,1-1.8,1.3-2.6c-0.6,0-1.8,0.4-3.8,1.3C204.8,12.4,204.9,12.6,204.9,12.8z M213.3,33.4c-0.1-1.9-0.4-4.6-0.9-8.2
				c-0.1-0.6-0.2-1.1-0.2-1.3c0-0.8,0.6-1.3,1.5-1.5c0.9,0,1.5,0.5,1.7,1.5c0.3,2.6,0.6,5.6,0.8,8.9c0.1,1.3,0.1,2.9,0.1,4.7
				c0,1.7-0.2,3-0.6,3.9c-0.4,1-1.1,1.5-1.9,1.5c-1,0-2.1-0.2-3.2-0.6c-1.3-0.6-2.1-1.2-2.6-1.8c-0.2-0.3-0.3-0.6-0.3-1
				c0.2-0.6,0.6-0.9,1.2-0.9c0.2,0,0.7,0.2,1.6,0.6c1.1,0.4,1.9,0.6,2.4,0.6c0.2-0.1,0.3-0.9,0.3-2.2
				C213.4,35.9,213.3,34.6,213.3,33.4z M225.1,27.5c-0.9,2.6-2.1,5.3-3.5,8.1c-0.5,0.9-1,1.5-1.3,2c-0.5,0.4-1,0.6-1.3,0.7
				c-0.5,0-0.7-0.3-0.7-0.9c0-0.3,0.2-0.9,0.6-1.5c0.3-0.9,0.7-1.9,1.2-3c0.9-2.1,1.9-4.6,2.8-7.5c0.8-3.1,1.2-6.4,1.4-10v-0.2
				c-0.6,0.2-1.2,0.3-1.8,0.3h-0.6c-0.9,0-1.6-0.7-2.1-1.9c-0.3-1.4-0.5-3.3-0.5-5.8c0-0.7,0.4-1.1,1-1.2c0.3,0,0.6,0,0.9,0
				c0.5,0.1,0.9,0.4,1.1,1c0.2,2.3,0.3,3.9,0.6,4.8c1.2-0.2,2.4-0.5,3.7-0.9c1.7-0.5,3.4-1.2,5-2.1c0.7-0.3,1.2-0.6,1.5-0.6
				c1.3,0,2,0.9,2,2.4c0,0.9-0.3,1.9-0.7,3.2c-0.4,1.2-0.9,2.3-1.5,3.3c-0.9,1.9-2.1,3.5-3.4,4.9c-0.4,0.3-0.8,0.6-1.2,0.9
				c-0.2,0.2-0.3,0.3-0.5,0.3c0.8,1.5,1.6,2.7,2.3,3.7c0.9,1.2,1.9,2.4,3.1,3.6c0.3,0.4,0.9,1.1,2,2.2c0.6,0.8,1.2,1.6,1.8,2.4
				c0.2,0.6,0.3,1.1,0.3,1.5c0,0.6-0.3,0.9-0.9,1.1c-0.4,0-0.8-0.2-1.2-0.6c-0.9-0.9-1.7-1.9-2.5-2.8c-1.1-1.2-2.2-2.4-3.2-3.6
				c-1.6-1.9-2.9-3.8-3.9-5.7C225.4,26.4,225.3,27,225.1,27.5z M227.3,14.3v0.9c-0.1,2.3-0.4,4.5-0.8,6.8c0.1,0.2,0.2,0.3,0.3,0.3
				c0.1,0,0.1-0.1,0.2-0.2c1.3-1.7,2.3-3.3,3.2-4.8c1.2-2.2,1.9-4,2.1-5.5C230.5,12.9,228.9,13.7,227.3,14.3z"/>
			<path class="st0" d="M257.9,16.1c-0.3,1.2-0.7,2.3-1.3,3.4c-0.1,0.2-0.2,0.4-0.3,0.6c0.1,0.1,0.2,0.2,0.3,0.3
				c0,0.2,0.1,0.3,0.1,0.5c0,0.3-0.2,0.6-0.4,1c-0.9,0.9-2.1,1.7-3.5,2.4c-1.5,0.9-3.1,1.7-4.6,2.1c-0.3,0.1-0.5,0.2-0.6,0.2
				c-0.3,0-0.6-0.2-0.9-0.6c-0.3-0.3-0.3-0.8-0.3-1.4c0-0.5,0.3-0.8,0.8-1.1c-0.1-1.2-0.3-2.6-0.6-4.2c-0.6-2.8-1.2-5.2-1.6-7
				c0-0.3,0.2-0.6,0.4-0.9c0.3-0.3,0.6-0.6,1-0.6c0.3,0,0.6,0,0.8,0.1c0.4,0.2,0.8,0.5,0.9,0.9c0.9-0.2,2.4-0.3,4.4-0.4
				c1.5,0,2.7,0.3,3.7,0.7c1.2,0.6,1.8,1.3,1.8,2.1C258.2,14.7,258.1,15.4,257.9,16.1z M252.6,21.3c0.1-0.2,0.2-0.3,0.4-0.5
				c0.5-0.7,1-1.8,1.5-3.1c0.3-1.3,0.6-2,0.6-2.3c-0.4-0.7-1.2-1.1-2.4-1.1c-1.2,0-2.5,0-4,0.1c0.1,0.8,0.2,1.8,0.3,2.8
				c0.3,2.4,0.5,4.2,0.6,5.4C250.8,22.1,251.8,21.7,252.6,21.3z M279.9,35.9c0,0.2,0.1,0.4,0.1,0.6c0,0.4-0.2,0.9-0.6,1.3
				c-1.6,0.6-3.6,1.2-6,1.9c-2.8,0.7-5.6,1.3-8.1,1.7c-0.3,0.1-0.5,0.2-0.6,0.2c-0.4,0-0.7-0.2-1-0.6c-0.2-0.4-0.3-0.9-0.3-1.5
				c0-0.5,0.2-0.8,0.6-0.9v-0.1c-0.2-1.6-0.6-3.5-1.3-5.9c-1.2-3.5-2.2-6.3-3-8.5c0-0.3,0.2-0.6,0.4-0.9c0.3-0.3,0.6-0.6,1-0.6
				c0.3,0,0.6,0,0.9,0.1c0.4,0.2,0.7,0.5,0.9,0.9c0.1,0.2,0.1,0.3,0.2,0.4c1.5-0.8,3.3-1.5,5.5-2.1c2.4-0.6,4.9-0.9,7.5-0.9
				c1.7,0,3.2,0.3,4.4,0.9c1,0.5,1.8,1.3,2.3,2.3c0.3,0.7,0.5,1.6,0.5,2.5c-0.1,1.7-0.6,3.3-1.4,4.9c-0.7,1.4-1.7,2.7-2.8,3.9
				C279.5,35.5,279.8,35.7,279.9,35.9z M274,16.8c-1.9,0.7-3.9,1.4-5.9,2.1c-0.3,0.1-0.6,0.2-0.9,0.2h-0.3c-0.2,0.6-0.6,0.9-1.2,0.9
				c-0.8,0-1.2-0.3-1.2-1.1c-0.1-1.6-0.3-3.6-0.6-6c-0.6-3.5-1.2-6.3-1.6-8.6c0-0.3,0.2-0.6,0.5-0.9c0.3-0.3,0.6-0.6,1.1-0.6
				c0.3,0,0.6,0,0.8,0.1c0.2,0.1,0.3,0.2,0.5,0.3c0.1,0,0.2-0.1,0.3-0.1c2-0.3,4.3-0.6,6.9-0.6c1.7,0,3.3,0.3,4.7,0.8
				c2,0.8,2.9,2.3,2.9,4.5c-0.3,2.4-1.2,4.6-2.9,6.7c0,0.5-0.2,0.9-0.6,1.3C275.8,16,275,16.4,274,16.8z M266.6,38
				c0.7-0.1,1.3-0.2,1.9-0.3c2.3-0.5,4.3-0.9,6.2-1.3c0.1-0.4,0.4-0.7,0.7-1.1c2-2.1,3.4-4.2,4.2-6.2c0.4-1.3,0.6-2.3,0.6-2.9
				c0-1.8-1.2-2.6-3.7-2.6c-3.7,0-7.8,1-12.4,3c0.3,1,0.6,2.2,1,3.5c0.1,0.5,0.2,0.9,0.3,1.3c1.9-0.9,5.1-2,9.7-3.2
				c1-0.3,1.8-0.4,2.5-0.4c0.3,0,0.6,0.2,0.8,0.4c0.2,0.3,0.3,0.6,0.3,0.7c0,0.3-0.3,0.7-0.7,0.9c-2.1,0.8-5.2,1.8-9.2,3.1
				c-1.4,0.5-2.3,0.8-2.8,0.9c0.4,1.8,0.6,3.1,0.6,3.9V38z M266.3,9.6c0.1,0,0.2,0,0.3-0.1c0.8,0,3.1-0.6,7-1.7
				c0.7,0,1.1,0.2,1.2,0.6c0,0.2,0,0.4,0,0.6c-0.1,0.3-0.3,0.6-0.6,0.7c-0.6,0.4-1.5,0.8-2.4,1.2c-1.8,0.6-3.4,1-5,1.2
				c0,0-0.1,0-0.1,0c0.2,1.6,0.3,2.9,0.3,3.9c0.1,0,0.2,0,0.3,0c2.6-0.6,4.8-1.3,6.7-2c0.1-0.2,0.2-0.3,0.4-0.6
				c1.3-2,2.1-3.6,2.5-4.7c0.1-0.6,0.2-1,0.2-1.3c-0.6-1.2-2-1.8-4.2-1.8c-2.3,0-4.5,0.3-6.8,0.6C265.9,7.1,266.1,8.2,266.3,9.6z"/>
			<path class="st0" d="M293,30.9c0.4,0,0.9,0.2,1.2,0.6c0.3,0.4,0.6,1,1.2,1.8c0.9,1.4,1.8,2.8,2.9,4.5c0.2,0.3,0.3,0.7,0.3,1.1
				c-0.1,0.5-0.3,0.9-0.9,1c-0.5,0-0.9-0.1-1.2-0.3c-0.9-0.6-2.2-2.4-4.1-5.4c-0.3-0.4-0.5-0.8-0.6-1.2c-0.2-0.3-0.3-0.6-0.3-0.8
				C291.6,31.5,292.1,31.1,293,30.9z M296.6,14.4c2.6-1.8,4.6-2.8,6.1-2.8c0.4,0.1,0.6,0.4,0.7,0.9c0,2-2,5.4-5.9,10.3
				c1.6-0.8,3.6-1.7,5.8-2.9c0.8-0.4,1.3-0.6,1.6-0.6c0.9,0,1.3,0.4,1.3,1.2c0,1.2-0.5,2.4-1.4,3.7c-0.6,1-1.3,1.8-2,2.3
				c-0.3,0.3-0.6,0.3-0.9,0.3c-0.4,0-0.6-0.2-0.6-0.6c0-0.2,0.1-0.5,0.3-0.8c0.7-1.3,1.2-2.5,1.7-3.4c-3.9,3.2-6.8,5-8.7,5.1
				c-0.8,0-1.2-0.4-1.2-1.2c0-0.4,0.2-1,0.7-1.8c1.7-2.9,3.7-6.2,6.1-9.7c-2.4,2.2-4.7,3.5-6.8,3.8c-0.7-0.1-1.1-0.6-1.1-1.5
				c3.1-4.8,4.9-8.8,5.5-12.2c0.3-0.7,0.9-1.1,1.8-1.1c0.7,0.2,1.1,0.6,1.1,1.2C300.3,7.1,298.9,10.3,296.6,14.4z M297.6,28.9
				c0.4,0,0.9,0.2,1.2,0.5c0.2,0.3,0.5,0.8,0.9,1.5c0.6,1.2,1.4,2.4,2.1,3.7c0.2,0.3,0.3,0.6,0.3,0.9c-0.1,0.5-0.3,0.8-0.8,0.9
				c-0.4,0-0.7-0.1-1-0.3c-0.7-0.4-1.8-1.9-3.4-4.3c-0.2-0.3-0.4-0.6-0.5-0.9c-0.2-0.3-0.2-0.5-0.2-0.8
				C296.3,29.6,296.8,29.1,297.6,28.9z M306.8,33.5c-0.2,0.3-0.3,0.4-0.4,0.4c-0.2,0.1-0.4,0.2-0.7,0.2c-0.5,0-1.3-0.5-2.4-1.4
				c-0.8-0.6-1.5-1.5-2.1-2.5c-0.3-0.3-0.3-0.6-0.3-0.9c0-0.2,0.1-0.5,0.4-0.7c0.2-0.2,0.4-0.4,0.7-0.5c0.1,0,0.3,0,0.4,0
				c0.2,0,0.4,0.1,0.6,0.3c0.3,0.3,0.5,0.6,0.8,0.9c1,1.5,1.9,2.6,2.9,3.1c0.2,0.1,0.3,0.3,0.3,0.7C307,33.1,306.9,33.3,306.8,33.5z
				 M312,33.8c-0.3,0.3-0.7,0.5-1,0.5c-0.4,0-0.7-0.1-0.9-0.3c-0.3-0.3-0.4-0.7-0.4-1.3c-0.1-1.8-0.1-4.3-0.1-7.6
				c0-2.6,0-4.9,0.1-6.9c0-2.1,0.1-4.4,0.2-6.8c0-1.2,0-2.5,0-3.9c0-0.3-0.1-0.6-0.1-0.9c0-0.3,0-0.5,0-0.7s0.2-0.5,0.4-0.7
				c0.4-0.3,0.8-0.6,1.2-0.6c0.5,0,0.9,0.3,1.3,0.9c0.1,0.2,0.1,0.4,0.2,0.6c1.9-0.5,4.1-0.8,6.7-0.8h1c0.6,0.1,1.2,0.8,1.6,2
				c0.3,0.9,0.5,2.5,0.7,4.7c0.1,1.7,0.2,3.8,0.3,6.2c0.1,4.8,0.2,10.3,0.4,16.4c0,0.2,0,0.4-0.1,0.6c2.3,0,4.1,0.2,5.5,0.3
				c1,0.3,1.6,0.7,1.6,1.5c0,0.9-0.5,1.5-1.5,1.7c-0.6,0-1.6-0.1-2.9-0.2c-1.2,0-2.9,0-5,0c-2.3,0-4.8,0.2-7.6,0.6
				c-2.3,0.3-4.4,0.8-6.3,1.3c-0.6,0-0.9,0.1-1.2,0.1c-0.3,0-0.7-0.2-1.1-0.6c-0.3-0.4-0.6-0.8-0.6-1.2c0-0.9,0.6-1.4,1.7-1.8
				c1.4-0.4,3-0.7,4.9-0.9c1.6-0.3,3.2-0.4,4.7-0.5c1.6-0.1,3.1-0.2,4.4-0.3V23.9c0-7.9-0.2-12.6-0.4-14.2c-0.2-0.9-0.4-1.4-0.7-1.4
				c-1.6,0-3.5,0.4-5.8,1.1H313c0,0.9-0.1,2-0.2,3.2c-0.1,1.5-0.2,2.8-0.3,3.8c1.9-0.6,3.5-1.2,4.9-1.8c0.5-0.2,0.9-0.3,1.1-0.3
				c0.3,0,0.6,0.1,0.8,0.3c0.3,0.2,0.6,0.4,0.6,0.7c0,0.4-0.2,0.8-0.6,1.2c-0.4,0.3-1,0.7-1.8,1.1c-1.4,0.7-2.9,1.3-4.4,1.8
				c-0.2,0.1-0.4,0.2-0.6,0.2c0,1.1-0.1,2.9-0.1,5.5v0c0.6-0.2,1.1-0.4,1.4-0.5c0.9-0.3,2-0.8,3.3-1.4c0.5-0.2,0.9-0.3,1.2-0.4
				c0.3-0.1,0.5-0.1,0.8-0.1c0.4,0,0.7,0.2,0.9,0.4c0.1,0.2,0.1,0.4,0.1,0.6c0,0.3-0.3,0.7-0.8,1.3c-0.6,0.6-1.4,1.1-2.3,1.6
				c-1.3,0.6-2.5,1.1-3.5,1.4c-0.4,0.1-0.8,0.2-0.9,0.2c0,1.5,0,3,0,4.4C312.4,33.2,312.2,33.6,312,33.8z"/>
		</g>
	</g>
</g>
</svg>
