<?xml version="1.0" encoding="utf-8"?>
<!-- Generator: Adobe Illustrator 26.5.0, SVG Export Plug-In . SVG Version: 6.00 Build 0)  -->
<svg version="1.1" id="_圖層_2" xmlns="http://www.w3.org/2000/svg" xmlns:xlink="http://www.w3.org/1999/xlink" x="0px" y="0px"
	 viewBox="0 0 330 44.5" style="enable-background:new 0 0 330 44.5;" xml:space="preserve">
<style type="text/css">
	.st0{fill:#0A9A94;}
</style>
<g>
	
		<image style="overflow:visible;opacity:0.75;" width="361" height="75" xlink:href="60141B70C772D80F.png"  transform="matrix(1 0 0 1 -15 -15.45)">
	</image>
	<g>
		<g>
			<path class="st0" d="M13.9,31.9c-0.1-0.6-0.1-1.2-0.1-1.8c-0.6,0.6-1.2,1.2-1.9,1.6c-1.2,0.9-2.3,1.5-3.4,2c0,0.4,0,0.9,0.1,1.2
				c0,1.3-0.6,2-1.6,2c-0.8,0-1.3-0.6-1.5-1.9c-0.1-0.9-0.2-1.9-0.2-2.9c0-4,0.3-7.5,0.9-10.4c-0.2,0-0.3,0.1-0.5,0.1
				c-1.1,0.2-1.9,0.3-2.3,0.3c-0.6,0.1-1.2,0.1-1.6,0.1c-0.8,0-1.3-0.6-1.4-1.7c0-0.5,0.4-0.9,1.2-1.3c0.4-0.1,1-0.3,1.8-0.6
				c4.4-0.7,8.6-1.5,12.7-2.4c5.9-1.2,10.5-2.3,13.8-3.2c0.4,0,0.8,0.2,0.9,0.4c0,0.2,0.1,0.3,0.1,0.5c0,0.4-0.2,0.9-0.6,1.4
				c-1.7,1.2-6.2,2.6-13.4,4.1c-0.2,0-0.3,0.1-0.5,0.1c0,0.1,0,0.2,0,0.2c0,0.7,0,1.9-0.1,3.5c0,1.4,0,2.9,0,4.5
				c0,1.4,0,3.1,0.1,5.1c0.1,1.9,0.2,3.5,0.2,4.8c0,2.2-0.4,4.1-1.2,5.5c-0.3,0.6-0.8,0.9-1.4,0.9c-0.9,0-1.3-0.5-1.3-1.5
				c0.8-1.5,1.2-2.9,1.3-4.5c0-0.3,0-0.6,0-0.9c-1.5,1.2-3.1,2.2-4.9,3.1c-1.5,0.7-2.7,1.1-3.8,1.4c-0.4,0.1-0.7,0.1-1,0.1
				c-0.8,0-1.2-0.5-1.3-1.3c0-0.4,0-0.7,0.2-0.9c0.2-0.3,0.8-0.6,1.8-0.9c1.1-0.3,2-0.7,2.7-1c1.7-0.8,3.8-1.8,6.1-3.2
				c0.1-0.1,0.1-0.1,0.2-0.2C14,33.4,13.9,32.7,13.9,31.9z M11.6,15c-0.3,0.2-0.5,0.3-0.7,0.3c-0.3,0-0.5-0.1-0.8-0.5
				c-0.2-0.2-0.3-0.3-0.4-0.6c-0.4-0.7-0.6-1.6-0.7-2.8c-0.1-0.8-0.1-1.5-0.2-2.1C8.6,8.2,8.4,7.2,8.2,6.2C8,5,7.9,4.3,7.9,3.9
				c0-0.7,0.4-1.1,1.2-1.2h0.7c0.4,0,0.7,0.3,1,0.9C10.9,4,11,4.7,11,5.7c0.2,1.8,0.3,3.3,0.6,4.6c0.1,1.4,0.3,2.5,0.4,3.4
				C12,14.5,11.9,14.9,11.6,15z M9.2,30.4c1.2-0.6,2.3-1.2,3.2-1.8c0.5-0.5,0.9-0.7,1-0.8l0.1,0c0-0.8,0-1.5,0-2.3
				c-1.4,0.6-3.1,1.3-5,2H8.5c-0.1,1.2-0.2,2.3-0.2,3.3C8.7,30.6,9,30.5,9.2,30.4z M11,23.7c1.3-0.4,2.1-0.6,2.6-0.7
				c0-0.9,0-1.9,0-2.9c-1.5,0.3-3,0.7-4.4,1c0,0.3-0.1,0.5-0.1,0.7c-0.1,0.8-0.2,1.8-0.3,2.9C9.3,24.4,10.1,24.1,11,23.7z
				 M21.1,13.9c-0.3-0.2-0.4-0.4-0.4-0.9c0-0.3,0.2-0.6,0.6-1.1c0.4-0.7,0.9-1.5,1.2-2.4c0.6-1.7,1-3.1,1.1-4.2
				c0-1.2-0.3-1.8-0.9-1.9c-1.8,0-3.4,0.2-5,0.5c-1.7,0.2-3.2,0.5-4.5,0.9C12.8,4.9,12.5,5,12.4,5c-0.6,0-0.9-0.4-0.9-1.2
				c0-0.5,0.1-0.9,0.3-1.3C12,2.2,12.2,2,12.7,1.8c1.2-0.3,2.6-0.6,4.5-0.9c1.6-0.2,3.2-0.3,4.5-0.3c0.9,0,1.6,0.1,2.2,0.3
				c1,0.3,1.7,0.8,2.2,1.7c0.3,0.8,0.6,1.6,0.6,2.5c0,0.9-0.3,2.2-0.8,3.8c-0.4,1.4-1,2.6-1.6,3.6c-0.3,0.6-0.6,1-0.9,1.3
				c-0.5,0.4-1,0.6-1.4,0.6C21.6,14.2,21.3,14.1,21.1,13.9z M15.2,8.6C14.2,8.9,13.6,9,13.4,9h-0.3c-0.2,0-0.4-0.2-0.6-0.4
				c-0.2-0.3-0.2-0.5-0.2-0.7c0-0.3,0.2-0.7,0.6-1c0.9-0.3,2.8-0.8,5.4-1.3c0.6-0.1,1.1-0.2,1.4-0.2c0.3,0,0.5,0.2,0.8,0.4
				c0.2,0.3,0.3,0.5,0.3,0.7c0,0.3-0.3,0.7-0.8,0.9C19,7.7,17.4,8.1,15.2,8.6z M20.4,10.2c0.2,0.3,0.3,0.6,0.3,0.8
				c0,0.3-0.2,0.6-0.5,0.8c-1.5,0.5-3.5,1-6,1.7c-0.7,0-1.1-0.4-1.2-1v-0.4c0-0.3,0.2-0.5,0.5-0.7c0.6-0.3,1.7-0.6,3.2-1
				c1.5-0.3,2.5-0.6,2.8-0.6C20,9.8,20.3,10,20.4,10.2z M21,39c-0.8-0.1-1.2-0.4-1.2-1.1c0-0.3,0-0.5,0.1-0.8
				c1.1-1.2,2.1-2.3,2.7-3.5c-1.2-1.5-2.4-2.9-3.5-4.4c-0.4-0.3-0.6-0.7-0.6-1.2c0-0.3,0.1-0.6,0.3-0.9c0.3-0.4,0.6-0.6,1.2-0.7
				c0.5,0,0.9,0.2,1.2,0.4c0.3,0.2,0.5,0.5,0.8,0.8c0.6,0.8,1.2,1.6,1.8,2.4c0.2,0.3,0.3,0.5,0.5,0.6c0.3-0.4,0.5-0.8,0.6-1.2
				c1-2.1,1.6-4,1.8-5.6c-1.1,0-2.2,0.1-3.3,0.3c-0.7,0.1-1.1,0.1-1.2,0.1c-0.3,0-0.6-0.1-0.9-0.4c-0.3-0.4-0.4-0.9-0.4-1.5
				c0-0.5,0.3-0.9,0.8-1.3c0.7-0.3,1.8-0.5,3.1-0.6c0.5,0,1.1,0,1.7,0c0.8,0,1.4,0.3,1.8,0.6c0.6,0.5,1,1.1,1.3,1.9
				c0,0.4,0.1,0.8,0.1,1.2c0,1.4-0.8,3.7-2.3,6.9c-0.4,0.7-0.7,1.4-1.1,2c2.4,2.7,4.7,4.4,6.7,5.2c1.4,0.5,2.6,0.7,3.7,0.8
				c0.4,0,0.7,0.1,0.8,0.4c0,0.4-0.2,0.7-0.4,0.9c-0.7,0.5-2,0.8-3.7,0.8c-0.9,0-1.8-0.2-2.9-0.6c-1-0.4-2.2-1.2-3.5-2.1
				c-0.9-0.8-1.8-1.6-2.6-2.6c-1.2,1.6-2.1,2.6-2.7,2.9C21.6,38.9,21.3,39,21,39z"/>
			<path class="st0" d="M56.1,8.7c-0.3,0.8-0.6,1.7-1.1,2.7c-0.4,0.9-0.9,1.9-1.5,3c0.1,0.1,0.3,0.3,0.4,0.5
				c0.4,1.5,0.6,3.7,0.7,6.7c0,4.4-0.3,8.5-0.9,12.4c-0.2,1.7-0.5,3.2-0.8,4.5c-0.2,0.9-0.7,1.3-1.5,1.3c-0.9,0-1.3-0.5-1.3-1.5
				c0-1.3,0.3-3.6,0.8-7c0.3-2.2,0.4-4.5,0.4-7v-2.5c0-1.2,0-2.3-0.1-3.3c-0.8,1.5-1.7,3.1-2.6,4.7c-0.7,1.3-1.5,2.8-2.4,4.5
				c-0.3,0.5-0.7,0.7-1.1,0.7c-0.7,0-1.1-0.3-1.2-1c0-0.3,0.1-0.7,0.4-1c0.4-0.9,0.9-2,1.6-3.3c0.8-1.7,1.8-3.9,3.1-6.5
				c1-2.1,2-4.4,3.2-6.8c0.3-0.8,0.6-1.7,1-2.6c0.2-0.3,0.4-0.8,0.6-1.2c0.4-0.1,0.9-0.2,1.6-0.2c0.8,0.2,1.2,0.6,1.2,1.3
				C56.7,7.5,56.5,8.1,56.1,8.7z M77.1,27.7c-0.8,0.6-2.6,1.4-5.5,2.1c-0.1,0.9-0.2,1.7-0.3,2.4c-0.4,2.1-1,3.7-1.7,4.8v0
				c1.1-0.1,2.2-0.2,3.2-0.3c1.3-0.1,2.7-0.2,4.1-0.3c1.3-0.1,2.2-0.1,2.8-0.1c0.9,0,1.4,0.5,1.5,1.4c0,0.8-0.4,1.2-1.3,1.5
				c-0.8,0-1.6,0-2.4,0.1c-1.3,0.1-2.7,0.2-4.2,0.3c-2.1,0.2-4.8,0.4-7.9,0.8c-1.9,0.3-3.9,0.5-5.8,0.9c-0.6,0.2-1,0.3-1.2,0.3
				c-0.5,0-0.8-0.3-1.1-0.7C57,40.8,57,40.4,57,39.9c0-0.5,0.4-0.9,1.2-1.3c1.1-0.3,2.7-0.5,4.9-0.7c1.5-0.2,2.8-0.4,3.9-0.5v0
				c0.3-0.9,0.9-2,1.6-3.6c0.1-1.2,0.3-2.3,0.3-3.2c-1.3,0.3-2.6,0.6-3.7,0.9c-0.6,0.1-0.9,0.2-1.1,0.2c-0.6,0.1-1.2,0.1-1.6,0.1
				c-0.8,0-1.2-0.6-1.3-1.6c0-0.5,0.4-0.9,1.2-1.3c0.4-0.1,1-0.3,1.7-0.6c1.7-0.3,3.4-0.6,5-1c0-0.6-0.2-1.3-0.4-2.1
				c-0.1-0.3-0.2-0.7-0.3-1c-0.2-0.6-0.3-1-0.3-1.3c0-0.5,0.2-0.9,0.7-1.3c0.3-0.2,0.7-0.3,1.1-0.3c0.7,0,1.2,0.4,1.4,1.3
				c0.2,0.5,0.4,1.2,0.5,2c0,0.6,0.1,1.2,0.1,1.5v0.6c2.1-0.4,3.7-0.9,4.9-1.3c0.4,0,0.7,0.2,0.9,0.6c0.1,0.1,0.1,0.3,0.1,0.5
				C77.7,26.8,77.5,27.2,77.1,27.7z M74.8,6.7c-1.1,0.7-2.5,1.4-4,2.1c0,0.3,0,0.5,0,0.6c0,1.5-0.3,3.2-0.8,4.8
				c-0.2,0.5-0.3,1-0.4,1.3c0.9-0.2,1.8-0.4,2.7-0.6c1-0.3,1.8-0.4,2.4-0.4c0.3,0,0.7,0.2,1,0.6c0.3,0.4,0.4,0.7,0.4,1
				c0,0.4-0.3,0.9-0.9,1.2c-2,0.7-5,1.6-8.8,2.7c-1.9,0.6-3,0.9-3.2,0.9h-0.4c-0.3,0-0.5-0.3-0.8-0.6c-0.3-0.3-0.3-0.6-0.3-1
				c0-0.6,0.3-1.1,0.9-1.5c0.9-0.4,2.3-0.9,4.1-1.4c0.2-0.4,0.3-0.9,0.4-1.3c0.3-1.2,0.6-2.6,0.6-4.1v-1c-2,0.7-3.9,1.3-5.6,1.7
				c-0.3,0.1-0.6,0.1-0.7,0.1c-0.4,0-0.7-0.2-1-0.6c-0.3-0.3-0.3-0.9-0.3-1.5c0-0.5,0.3-0.9,0.9-1.2c1.5-0.4,2.8-0.7,3.9-1
				c0.9-0.3,1.8-0.5,2.7-0.8c-0.2-0.8-0.5-1.5-0.8-2.2l-1.3-3c0.3-0.9,0.9-1.3,1.8-1.4c0.5,0.1,1,0.4,1.4,0.9
				c0.9,1.2,1.5,2.8,1.9,4.7c0.4-0.1,0.7-0.2,1.1-0.4c1.1-0.5,1.8-0.8,2.1-0.9c0.3-0.1,0.5-0.1,0.7-0.1c0.4,0,0.8,0.2,1,0.6
				c0,0.2,0,0.4,0,0.6C75.3,5.9,75.1,6.3,74.8,6.7z"/>
			<path class="st0" d="M107.4,12.8c-0.5,1.9-1,3.8-1.6,5.5c0.7,0.8,1.4,1.6,2.1,2.4c3.1,3.9,6.8,7.8,11.1,11.8
				c2.6,2.2,4.9,4.2,7.1,6.1c0.7,0.5,1.1,1.2,1.1,1.9c0,0.6-0.3,1-0.8,1.2h-0.3c-0.4,0-0.9-0.2-1.5-0.5c-2-1.3-4.1-2.9-6.3-4.7
				c-5.3-4.3-9.8-9.1-13.5-14.4c-0.2-0.2-0.3-0.3-0.4-0.6c-0.2,0.5-0.4,1-0.6,1.4c-0.9,2-2.1,4.4-3.4,7c-0.8,1.6-1.6,3-2.3,4.2
				c-0.8,1.3-1.5,2.1-2,2.6c-0.3,0.2-0.7,0.3-1.1,0.3c-0.6-0.1-1-0.5-1.1-1.2c0-0.5,0.1-0.9,0.3-1.2c0.5-0.8,1-1.7,1.5-2.6
				c1-1.8,2.1-3.8,3.3-6.1c0.8-1.9,1.7-3.9,2.6-6.2c1-2.7,1.8-5.3,2.3-7.7c0.4-2.5,0.7-4.8,0.7-6.9c0-0.6,0.4-1,1.1-1.2
				c0.3,0,0.6,0,0.9,0c0.8,0,1.2,0.8,1.3,2.2C108.2,8.1,107.9,10.3,107.4,12.8z"/>
			<path class="st0" d="M159.5,27.7c-0.9,1-3,2.2-6.4,3.5v1.2c0,1.8-0.1,3.5-0.2,5.2c-0.1,1.8-0.3,3.2-0.6,4
				c-0.2,0.9-0.7,1.5-1.4,1.5c-0.8,0-1.2-0.4-1.2-1.2c0.1-0.7,0.3-1.7,0.5-2.9c0.1-1.9,0.2-3.4,0.2-4.6c-0.2,0.2-0.4,0.4-0.6,0.6
				c-1.6,2-3.6,4.1-6.1,6.2c-0.6,0.5-1.2,1-1.8,1.4c-0.4,0.3-0.8,0.6-1.2,0.6c-0.6,0-0.9-0.4-1-1c0-0.5,0.2-0.9,0.6-1.3
				c2.5-1.9,5.1-4.5,7.8-7.8c-0.7,0.3-1.5,0.6-2.1,0.8c-0.6,0.2-1,0.3-1.2,0.3c-0.6,0.1-1.1,0.2-1.5,0.2c-0.8,0-1.2-0.6-1.3-1.6
				c0-0.5,0.4-0.9,1.2-1.3c0.4-0.2,0.9-0.3,1.7-0.6c1.9-0.5,3.7-1.1,5.5-1.7c0-1-0.1-2.1-0.1-3.2c-0.1-1.2-0.1-2.4-0.2-3.5
				c-0.2-0.6-0.3-1-0.3-1.2c0-0.5,0.2-0.9,0.7-1.2c0.3-0.2,0.6-0.3,1.1-0.3c0.6,0,1.1,0.4,1.4,1.2c0.1,1.8,0.1,3.9,0.2,6.4
				c1.1-1.3,1.9-2.6,2.3-4c0.2-0.6,0.3-1.1,0.3-1.5V21c0.2-0.6,0.6-0.9,1.2-0.9c1,0,1.6,0.6,1.7,1.8v0.5c-0.2,1.6-1.3,3.3-3.5,5.1
				c1.6-0.6,3-1.2,4.1-1.8c0.3,0,0.6,0.2,0.9,0.4c0,0.1,0.1,0.3,0.1,0.4C160.1,26.9,159.9,27.3,159.5,27.7z M141.7,18
				c0.5-0.1,1.1-0.3,1.7-0.4c3.3-0.8,6.5-1.6,9.5-2.5c4.1-1.3,7.8-2.8,11-4.4c1.2,0,1.8,0.3,1.9,1c-0.8,1.4-1.5,3.7-2.2,6.9
				c-0.2,1.4-0.3,2.9-0.3,4.6c0.2,7.7,2.8,13,7.8,16c0.2-0.4,0.5-1.6,0.8-3.4c0-0.9,0.5-1.3,1.4-1.3c0.6,0.1,1.1,0.4,1.3,1.1
				c0,1.2-0.2,2.6-0.6,4.1c-0.5,2.5-1.2,3.8-2.2,3.8c-1.3,0-2.9-0.9-4.7-2.6c-2.2-2.2-4-5-5.3-8.4c-1-2.7-1.5-5.9-1.5-9.4
				c0-1.2,0.1-2.4,0.3-3.6c0.2-1.9,0.6-3.5,1-4.8c-4.7,2.2-10.4,4.2-17.2,5.9c-0.9,0.3-1.8,0.4-2.4,0.5c-0.6-0.1-1-0.5-1.2-1.4
				C140.9,18.9,141.1,18.3,141.7,18z M147.9,28.8c-0.2,0.2-0.4,0.2-0.6,0.2c-0.3,0-0.6,0-0.7-0.1c-0.2-0.1-0.4-0.3-0.7-0.6
				c-1.3-1.2-2.1-2.3-2.5-3.2c0-0.1,0-0.2,0-0.3c0-0.3,0.1-0.6,0.3-0.8c0.1-0.2,0.3-0.4,0.7-0.6c0.2,0,0.4-0.1,0.7-0.1
				c0.4,0,0.8,0.3,1.2,0.9c0.3,0.6,0.7,1.3,1.2,2c0.4,0.9,0.7,1.4,0.9,1.7v0.3C148.2,28.4,148.1,28.6,147.9,28.8z M159.5,9.5
				c-0.8,0.7-2.7,1.5-5.8,2.5c-1.8,0.5-3.4,1-4.9,1.4c-0.5,0.1-0.9,0.2-1,0.2c-0.6,0.1-1.1,0.1-1.5,0.1c-0.8,0-1.2-0.6-1.3-1.6
				c0-0.4,0.4-0.9,1.2-1.3c0.5-0.2,1-0.3,1.7-0.6c1.9-0.3,3.7-0.8,5.5-1.2c2.5-0.6,4.4-1.2,5.9-1.7c0.4,0,0.7,0.2,0.9,0.4
				c0,0.1,0.1,0.2,0.1,0.4C160.1,8.7,159.9,9.1,159.5,9.5z M156.5,5.4c-2.9,0.9-5.2,1.5-6.9,1.7H149c-0.6,0-1.1-0.1-1.4-0.3
				c-0.6-0.3-0.8-0.9-0.8-1.6c0-0.5,0-1.1,0.2-1.8c0.2-0.6,0.4-1.1,0.6-1.6c0.2-0.8,0.7-1.2,1.4-1.2h0.3c0.9,0.2,1.4,0.7,1.4,1.6
				C150.2,3,150,3.7,150,4c0.6,0,2.2-0.3,4.6-0.9c1.3-0.3,2.6-0.7,4-1.2c0.8-0.3,1.3-0.4,1.6-0.4c0.6,0.1,0.9,0.5,0.9,1
				c0,0.4-0.1,0.8-0.4,1.1C159.7,4.2,158.3,4.8,156.5,5.4z M155.7,32.1c0.2,0.1,0.4,0.2,0.6,0.3c1.2,0.6,3,2.3,5.5,5
				c0.6,0.7,0.9,1.3,1,1.8c0,0.8-0.3,1.2-1,1.2c-0.3,0-0.7-0.2-1.2-0.6c-0.5-0.4-1.2-1-2-1.8c-1.4-1.3-2.9-2.5-4.5-3.6
				c-0.2-0.2-0.2-0.4-0.2-0.7v-0.4c0-0.3,0.2-0.7,0.6-1c0.2-0.2,0.4-0.3,0.7-0.3C155.3,32.1,155.5,32.1,155.7,32.1z"/>
			<path class="st0" d="M231.6,6c-1.3,1.2-4.4,2.6-9.3,4.3c0.1,2.6,0.1,5.2,0.2,7.8c0.1,3.6,0.3,7.2,0.5,10.8
				c0.1,3.9,0.3,7.4,0.5,10.8c0,1.3-0.3,2.2-0.8,2.8c-0.4,0.4-1,0.7-1.8,0.7c-2,0-3.7-1-5.2-3c-0.4-0.7-0.6-1.3-0.6-2
				c0-0.8,0.5-1.2,1.2-1.2c0.4,0,0.8,0.3,1.2,0.8c1.3,1.5,2.3,2.3,3.1,2.3c-0.3-3.4-0.6-7.3-0.8-11.9c-0.1-2.6-0.2-5.5-0.3-8.5
				c-4.7,6.7-8.5,11.5-11.5,14.2c-1.5,1.2-2.7,2.1-3.8,2.7c-0.3,0.1-0.5,0.1-0.7,0.1c-0.4,0-0.6-0.2-0.7-0.6c0-0.3,0.1-0.5,0.3-0.7
				c6.7-6.3,12-13.3,16.1-21.1c0-1-0.1-1.9-0.1-2.8c-3.4,1-6.5,1.9-9.4,2.6c-0.9,0.3-1.7,0.4-2.1,0.5c-0.7,0.1-1.2,0.1-1.7,0.1
				c-0.8,0-1.3-0.6-1.4-1.8c0-0.5,0.4-0.9,1.2-1.4c0.5-0.2,1.1-0.4,1.8-0.6c3.9-0.9,7.7-1.8,11.4-3h0c-0.1-1.9-0.2-3.8-0.2-5.7
				c0-0.9,0.6-1.5,1.7-1.5c1.1,0,1.6,0.5,1.6,1.5c0.1,1.7,0.1,3.3,0.2,4.7c3.7-1.1,6.7-2.1,8.9-3.1c0.4,0,0.8,0.2,0.9,0.4
				c0,0.2,0.1,0.3,0.1,0.5C232.2,5.2,232,5.6,231.6,6z"/>
			<path class="st0" d="M261.2,8.7c0.3,0,0.6,0.2,0.7,0.4c0.1,0.2,0.1,0.3,0.2,0.5c0,0.3-0.1,0.6-0.4,0.9c-0.9,0.7-2.3,1.4-4.1,2.1
				c0,0.5,0,1,0,1.4v1.2c1.3-0.5,2.4-1,3.5-1.5c1.1-0.5,1.9-0.8,2.3-0.8c0.2,0,0.4,0.1,0.6,0.2c0.3,0.2,0.5,0.4,0.5,0.6
				c0,0.4-0.2,0.8-0.6,1.1c-0.7,0.6-1.7,1.2-3,1.8c0.2,0.1,0.4,0.2,0.6,0.3c0.9,0.5,1.6,1,2.2,1.5c0.3,0.2,0.4,0.5,0.5,0.8
				c0,0.1,0.1,0.2,0.1,0.3c0,0.3-0.2,0.5-0.4,0.8c-0.2,0.2-0.3,0.2-0.5,0.2c-0.2,0-0.4-0.1-0.7-0.3l-2.4-1.2
				c-0.7-0.3-1.5-0.8-2.2-1.2c-1.1,0.5-2.2,0.9-3.2,1.3c-0.1,0.3-0.3,0.6-0.4,0.9c-0.3,0.9-1,2-1.9,3.2c-0.5,0.9-0.9,1.6-1.4,2.2
				c-0.3,0.5-0.6,0.9-0.9,1.3c-0.3,0.5-0.6,0.8-0.9,0.9c-0.4,0.3-0.9,0.5-1.2,0.5c-0.3-0.2-0.5-0.4-0.5-0.8c0-0.3,0.1-0.6,0.3-1
				c0.1-0.2,0.2-0.5,0.4-0.7c0.2-0.4,0.5-1,0.9-1.6c0.6-0.9,1.2-1.8,1.8-2.8c0.2-0.3,0.3-0.6,0.5-1c-0.6,0.3-1.2,0.5-1.7,0.6
				c-0.6,0.3-1.1,0.4-1.7,0.4H248c-0.8-0.4-1.2-1-1.2-1.8c0-0.4,0.3-0.7,0.7-1.1c0.3-0.2,0.9-0.3,1.5-0.5c2.2-0.6,4.2-1.2,6.1-1.9
				c-0.1-0.3-0.1-0.6-0.1-1c-0.1-0.5-0.1-1.1-0.2-1.6c-0.3,0.1-0.4,0.2-0.6,0.2c-1.2,0.3-2.4,0.6-3.5,0.6c-0.4,0-0.8-0.2-1.2-0.5
				c-0.3-0.3-0.5-0.6-0.5-1.1c0-0.6,0.3-0.9,0.9-1.1c1.1-0.1,2.3-0.3,3.7-0.6c0.1,0,0.3,0,0.4-0.1c-0.1-0.2-0.2-0.3-0.3-0.5
				c-0.1-0.2-0.2-0.4-0.2-0.8c0-0.3,0.2-0.7,0.5-0.9c0.3-0.2,0.7-0.3,1.3-0.3c0.4,0,0.7,0.2,0.9,0.6c0.3,0.3,0.6,0.6,0.7,1l0,0.1
				c1.4-0.4,2.6-0.9,3.7-1.5H261.2z M257.6,8.3c-0.5,0-0.8-0.2-1-0.6c-0.2-0.2-0.3-0.4-0.3-0.7c0-0.3-0.1-0.6-0.1-0.8
				c-0.8,0.1-1.6,0.2-2.3,0.3c-1.1,0.2-1.8,0.3-2.3,0.3c-0.6,0.1-1,0.1-1.5,0.1c-0.8,0-1.2-0.5-1.2-1.5c0-0.4,0.3-0.9,1.1-1.2
				c0.4-0.1,0.9-0.3,1.6-0.5c1.3-0.1,2.6-0.2,3.9-0.4v0c-0.2-0.3-0.3-0.5-0.4-0.8C255,2.2,255,2,255,1.7c0-0.4,0.2-0.7,0.5-1
				c0.3-0.2,0.8-0.3,1.3-0.3c0.4,0,0.7,0.2,1,0.6c0.3,0.3,0.5,0.6,0.6,1c0.1,0.3,0.2,0.6,0.3,0.9c1.9-0.3,3.8-0.5,5.6-0.7
				c1.4-0.2,2.7-0.3,3.9-0.5v0c0-0.6,0.2-1.1,0.6-1.5c0.3-0.2,0.6-0.3,1-0.3c0.4,0,0.8,0.1,1.1,0.3c0.2,0.3,0.4,0.6,0.7,1
				c2.6-0.4,4.8-0.7,6.6-1.1c0.3,0,0.5,0.1,0.7,0.4c0,0.1,0.1,0.2,0.1,0.3c0,0.3-0.2,0.7-0.5,1.1c-1.1,0.6-3.2,1.2-6.4,1.8
				c0,0.4-0.1,0.9-0.3,1.5c-0.1,0.5-0.3,0.9-0.4,1.2c-0.1,0.3-0.3,0.5-0.3,0.6c-0.3,0.3-0.6,0.6-1.2,0.6c-0.6,0-0.9-0.3-0.9-0.9V4.2
				c-1.2,0.3-2.4,0.5-3.8,0.6c-2.1,0.3-4.2,0.7-6.2,1v0c0,0.8,0,1.3-0.1,1.6C258.8,8,258.3,8.3,257.6,8.3z M271.1,38.6
				c-0.1-0.1-0.1-0.2-0.1-0.3c0-0.3,0.1-0.6,0.3-1c0.2-0.3,0.5-0.5,0.9-0.7c0.2-0.1,0.5-0.2,0.7-0.2c0.6,0,1,0.4,1.4,1
				c0.9,0.8,1.8,1.6,2.7,2.4c1.2,1,1.9,1.7,2.3,2.1v0.3c0,0.3-0.1,0.6-0.4,0.8c-0.2,0.2-0.5,0.3-0.9,0.3c-0.4,0-0.7-0.1-0.9-0.3
				c-0.4-0.2-0.9-0.4-1.3-0.6c-1.2-0.7-2.1-1.4-2.9-2c-0.3,0.1-0.5,0.2-0.7,0.3c-2.1,0.9-4.4,1.8-6.9,2.4c-2,0.5-3.8,0.8-5.4,0.8
				c-0.6,0-1.2-0.2-1.8-0.6c-0.4-0.4-0.6-0.9-0.6-1.5c0-0.3,0.4-1.1,1.2-2.3c0.3-0.4,0.5-0.8,0.7-1.2c-1.8,0.4-3.5,0.8-5.1,1.1
				c-1.1,0.2-1.8,0.3-2.3,0.4c-0.6,0-1.1,0.1-1.5,0.1c-0.8,0-1.3-0.6-1.4-1.7c0-0.5,0.4-0.9,1.2-1.3c0.4-0.2,1-0.4,1.7-0.6
				c3.5-0.5,6.8-1.1,10.1-1.7l0.1,0c0.8-0.2,1.6-0.3,2.4-0.5c5.9-1.2,10.5-2.2,13.7-3.1c0.3,0,0.6,0.1,0.7,0.3
				c0,0.1,0.1,0.2,0.1,0.4c0,0.3-0.2,0.6-0.5,0.9c-1.7,1.2-6.1,2.7-13.3,4.3c-0.8,0.2-1.6,0.3-2.3,0.5c-0.2,0.3-0.3,0.6-0.5,0.9
				c-0.5,0.9-1,1.8-1.5,2.6c1.5-0.2,3.5-0.7,5.9-1.4C268.6,39.6,269.9,39.1,271.1,38.6L271.1,38.6z M260.1,23.4
				c-0.6,0.3-1.1,0.5-1.5,0.7c0,0.3-0.1,0.5-0.2,0.7c-0.2,0.8-0.3,1.2-0.3,1.5c0,0.5,0,0.7,0.1,0.8c0.5-0.1,1.7-0.8,3.5-2.2
				c0.3-0.4,0.6-0.7,0.9-0.7c0.5,0,0.8,0.4,0.8,1c0,0.2-0.2,0.5-0.5,0.9c-0.9,0.9-2.1,1.8-3.5,2.5c-1.1,0.5-1.9,0.8-2.6,0.8
				c-0.5,0-0.9-0.3-1.2-0.9c-0.1-0.3-0.2-0.6-0.2-1.1c0-0.3,0.1-1,0.3-1.9c0-0.2,0.1-0.3,0.1-0.4c-0.5,0.2-0.9,0.4-1.3,0.6
				c-0.3,0.1-0.6,0.2-0.9,0.3h-0.2c-0.6-0.3-0.9-0.6-0.9-1.2c0-0.3,0.2-0.5,0.5-0.7c0.2-0.1,0.4-0.2,0.8-0.3
				c0.8-0.2,1.5-0.5,2.2-0.7c0-0.6-0.1-1.2-0.1-1.7c-0.1-0.4-0.1-0.6-0.1-0.8c0-0.2,0.1-0.5,0.3-0.7c0.2-0.2,0.5-0.3,0.8-0.4
				c0.4,0,0.7,0.1,0.9,0.3c0.3,0.2,0.4,0.6,0.5,1c0,0.5,0.1,0.9,0.1,1.3c0.7-0.3,1.4-0.6,2-0.9c0.6-0.3,1-0.4,1.3-0.4
				c0.1,0,0.3,0.1,0.4,0.2c0.2,0.1,0.3,0.2,0.3,0.3c0,0.3-0.1,0.5-0.3,0.7C261.7,22.5,261,23,260.1,23.4z M257.2,32.1
				c0-0.7,0.3-1.2,1.1-1.3c1.6,0,6.4-1.1,14.2-3.2c0.7,0,1.1,0.2,1.2,0.6c0,0.2,0,0.4,0,0.6c-0.2,0.3-0.4,0.6-0.7,0.7
				c-1.2,0.7-2.7,1.4-4.7,2.1c-3.5,1-6.8,1.8-10,2.1C257.6,33.6,257.2,33.1,257.2,32.1z M277.3,9.3c0.8,0,1.2,0.5,1.3,1.5
				c-0.5,1.8-0.9,3.3-1.1,4.5c0,0.5,0,0.9,0,1.4c0.2,3.8,1.3,6.1,3.2,7.1c0.2-0.1,0.4-0.7,0.5-1.8c0.2-0.3,0.4-0.6,0.8-0.6
				c0.3,0.2,0.6,0.4,0.8,0.8c0.1,0.4,0.1,1,0.1,1.8c-0.1,1-0.3,1.8-0.8,2.3c-0.3,0.4-0.7,0.6-1.2,0.6c-0.3,0-0.6-0.1-0.9-0.3
				c-2.4-0.9-4-3.2-4.8-7.1c-0.2-0.9-0.3-1.8-0.3-2.8c0-0.4,0-0.9,0-1.3c0-0.7,0.1-1.7,0.3-2.8c-0.8,0.3-1.8,0.6-3.1,1.1
				c-0.2,1.9-0.5,3.7-1,5.6c0.2,0.1,0.4,0.2,0.6,0.3c1,0.6,1.7,1,2,1.4c0.2,0.3,0.3,0.6,0.3,1.2c-0.1,0.5-0.3,0.8-0.6,0.9h-0.3
				c-0.2,0-0.4-0.1-0.8-0.3c-0.8-0.3-1.5-0.6-2.1-0.9c-0.6,1.8-1.1,3.3-1.6,4.3c-0.3,0.5-0.7,0.8-1.2,0.9H267
				c-0.5-0.1-0.8-0.4-0.8-1c0-0.2,0-0.4,0.2-0.8c0.5-1.3,0.9-2.7,1.4-4.3c-0.6-0.2-1.2-0.4-1.7-0.6c-0.5-0.2-0.7-0.7-0.7-1.5
				c0.1-0.7,0.6-1,1.4-1.1c0.4,0,0.9,0.1,1.6,0.4c0.2-1.1,0.3-2.2,0.4-3.3c-0.6,0.3-1.2,0.5-1.8,0.7c-0.9,0-1.5-0.3-1.6-1.1v-0.6
				c0-0.4,0.3-0.8,0.8-1.1c0.2-0.1,0.5-0.2,0.8-0.3c0.7-0.3,1.4-0.5,2-0.7c0-0.4-0.1-0.9-0.2-1.3l-0.3-1.2c0.3-0.9,1-1.3,1.8-1.3
				c0.5,0.1,1,0.4,1.4,0.9c0.2,0.4,0.3,1,0.4,1.8C275.1,9.8,276.8,9.3,277.3,9.3z"/>
			<path class="st0" d="M293,30.9c0.4,0,0.9,0.2,1.2,0.6c0.3,0.4,0.6,1,1.2,1.8c0.9,1.4,1.8,2.8,2.9,4.5c0.2,0.3,0.3,0.7,0.3,1.1
				c-0.1,0.5-0.3,0.9-0.9,1c-0.5,0-0.9-0.1-1.2-0.3c-0.9-0.6-2.2-2.4-4.1-5.4c-0.3-0.4-0.5-0.8-0.6-1.2c-0.2-0.3-0.3-0.6-0.3-0.8
				C291.6,31.5,292.1,31.1,293,30.9z M296.6,14.5c2.6-1.8,4.6-2.8,6.1-2.8c0.4,0.1,0.6,0.4,0.7,0.9c0,2-2,5.4-5.9,10.3
				c1.6-0.8,3.6-1.7,5.8-2.9c0.8-0.4,1.3-0.6,1.6-0.6c0.9,0,1.3,0.4,1.3,1.2c0,1.2-0.5,2.4-1.4,3.7c-0.6,1-1.3,1.8-2,2.3
				c-0.3,0.3-0.6,0.3-0.9,0.3c-0.4,0-0.6-0.2-0.6-0.6c0-0.2,0.1-0.5,0.3-0.8c0.7-1.3,1.2-2.5,1.7-3.4c-3.9,3.2-6.8,5-8.7,5.1
				c-0.8,0-1.2-0.4-1.2-1.2c0-0.4,0.2-1,0.7-1.8c1.7-2.9,3.7-6.2,6.1-9.7c-2.4,2.2-4.7,3.5-6.8,3.8c-0.7-0.1-1.1-0.6-1.1-1.5
				c3.1-4.8,4.9-8.8,5.5-12.2c0.3-0.7,0.9-1.1,1.8-1.1c0.7,0.2,1.1,0.6,1.1,1.2C300.3,7.1,298.9,10.4,296.6,14.5z M297.6,29
				c0.4,0,0.9,0.2,1.2,0.5c0.2,0.3,0.5,0.8,0.9,1.5c0.6,1.2,1.4,2.4,2.1,3.7c0.2,0.3,0.3,0.6,0.3,0.9c-0.1,0.5-0.3,0.8-0.8,0.9
				c-0.4,0-0.7-0.1-1-0.3c-0.7-0.4-1.8-1.9-3.4-4.3c-0.2-0.3-0.4-0.6-0.5-0.9c-0.2-0.3-0.2-0.5-0.2-0.8
				C296.3,29.6,296.8,29.2,297.6,29z M306.8,33.6c-0.2,0.3-0.3,0.4-0.4,0.4c-0.2,0.1-0.4,0.2-0.7,0.2c-0.5,0-1.3-0.5-2.4-1.4
				c-0.8-0.6-1.5-1.5-2.1-2.5c-0.3-0.3-0.3-0.6-0.3-0.9c0-0.2,0.1-0.5,0.4-0.7c0.2-0.2,0.4-0.4,0.7-0.5c0.1,0,0.3,0,0.4,0
				c0.2,0,0.4,0.1,0.6,0.3c0.3,0.3,0.5,0.6,0.8,0.9c1,1.5,1.9,2.6,2.9,3.1c0.2,0.1,0.3,0.3,0.3,0.7C307,33.2,306.9,33.4,306.8,33.6z
				 M312,33.9c-0.3,0.3-0.7,0.5-1,0.5c-0.4,0-0.7-0.1-0.9-0.3c-0.3-0.3-0.4-0.7-0.4-1.3c-0.1-1.8-0.1-4.3-0.1-7.6
				c0-2.6,0-4.9,0.1-6.9c0-2.1,0.1-4.4,0.2-6.8c0-1.2,0-2.5,0-3.9c0-0.3-0.1-0.6-0.1-0.9c0-0.3,0-0.5,0-0.7s0.2-0.5,0.4-0.7
				c0.4-0.3,0.8-0.6,1.2-0.6c0.5,0,0.9,0.3,1.3,0.9c0.1,0.2,0.1,0.4,0.2,0.6c1.9-0.5,4.1-0.8,6.7-0.8h1c0.6,0.1,1.2,0.8,1.6,2
				c0.3,0.9,0.5,2.5,0.7,4.7c0.1,1.7,0.2,3.8,0.3,6.2c0.1,4.8,0.2,10.3,0.4,16.4c0,0.2,0,0.4-0.1,0.6c2.3,0,4.1,0.2,5.5,0.3
				c1,0.3,1.6,0.7,1.6,1.5c0,0.9-0.5,1.5-1.5,1.7c-0.6,0-1.6-0.1-2.9-0.2c-1.2,0-2.9,0-5,0c-2.3,0-4.8,0.2-7.6,0.6
				c-2.3,0.3-4.4,0.8-6.3,1.3c-0.6,0-0.9,0.1-1.2,0.1c-0.3,0-0.7-0.2-1.1-0.6c-0.3-0.4-0.6-0.8-0.6-1.2c0-0.9,0.6-1.4,1.7-1.8
				c1.4-0.4,3-0.7,4.9-0.9c1.6-0.3,3.2-0.4,4.7-0.5c1.6-0.1,3.1-0.2,4.4-0.3V24c0-7.9-0.2-12.6-0.4-14.2c-0.2-0.9-0.4-1.4-0.7-1.4
				c-1.6,0-3.5,0.4-5.8,1.1H313c0,0.9-0.1,2-0.2,3.2c-0.1,1.5-0.2,2.8-0.3,3.8c1.9-0.6,3.5-1.2,4.9-1.8c0.5-0.2,0.9-0.3,1.1-0.3
				c0.3,0,0.6,0.1,0.8,0.3c0.3,0.2,0.6,0.4,0.6,0.7c0,0.4-0.2,0.8-0.6,1.2c-0.4,0.3-1,0.7-1.8,1.1c-1.4,0.7-2.9,1.3-4.4,1.8
				c-0.2,0.1-0.4,0.2-0.6,0.2c0,1.1-0.1,2.9-0.1,5.5v0c0.6-0.2,1.1-0.4,1.4-0.5c0.9-0.3,2-0.8,3.3-1.4c0.5-0.2,0.9-0.3,1.2-0.4
				c0.3-0.1,0.5-0.1,0.8-0.1c0.4,0,0.7,0.2,0.9,0.4c0.1,0.2,0.1,0.4,0.1,0.6c0,0.3-0.3,0.7-0.8,1.3c-0.6,0.6-1.4,1.1-2.3,1.6
				c-1.3,0.6-2.5,1.1-3.5,1.4c-0.4,0.1-0.8,0.2-0.9,0.2c0,1.5,0,3,0,4.4C312.4,33.3,312.2,33.6,312,33.9z"/>
		</g>
	</g>
</g>
</svg>
